# xmcd
#
# Track frame offsets:
#	150
#	22517
#	67896
#	88592
#	110189
#	141888
#	179125
#	199195
#	218198
#	245504
#	266113
#
# Disc length: 3778 seconds
#
# Revision: 0
# Processed by: cddbd v1.5.2PL0 Copyright (c) Steve Scherf et al.
# Submitted via: EZCDAudioConverter 3.1.0.1
#
DISCID=a30ec00b
DTITLE=Dr.Dengbej Metin Barlik - Siyabend u Xece
DYEAR=2012
DGENRE=Kurdish
TTITLE0=Kalo
TTITLE1=Siyabend ü Xece
TTITLE2=Cirancane
TTITLE3=Keçke Dine
TTITLE4=Emro
TTITLE5=Hese u Naze
TTITLE6=Duhune
TTITLE7=Lawuko
TTITLE8=Esmere
TTITLE9=Ey Şana Eli
TTITLE10=Le le Peyano
EXTD=
EXTT0=
EXTT1=
EXTT2=
EXTT3=
EXTT4=
EXTT5=
EXTT6=
EXTT7=
EXTT8=
EXTT9=
EXTT10=
PLAYORDER=
